<svg width="375" height="812" viewBox="0 0 375 812" fill="none" xmlns="http://www.w3.org/2000/svg">
<g clip-path="url(#clip0_1160_9)">
<rect width="375" height="812" fill="#1F1F27"/>
<rect x="-429.368" y="191.469" width="810.375" height="940.952" rx="48" transform="rotate(-29.7783 -429.368 191.469)" fill="#1F1F27"/>
<rect x="141" y="359" width="93.801" height="93.801" rx="13.2114" fill="#26262D"/>
<path d="M187.667 416.833C188.281 416.833 188.796 416.625 189.212 416.209C189.628 415.793 189.835 415.279 189.833 414.667C189.832 414.054 189.624 413.54 189.209 413.124C188.795 412.708 188.281 412.5 187.667 412.5C187.053 412.5 186.539 412.708 186.124 413.124C185.709 413.54 185.501 414.054 185.5 414.667C185.499 415.279 185.707 415.794 186.124 416.212C186.541 416.629 187.056 416.836 187.667 416.833ZM185.5 408.167H189.833V395.167H185.5V408.167ZM187.667 427.667C184.669 427.667 181.853 427.098 179.217 425.959C176.581 424.821 174.288 423.278 172.338 421.329C170.388 419.381 168.844 417.088 167.707 414.45C166.571 411.812 166.001 408.996 166 406C165.999 403.004 166.568 400.188 167.707 397.55C168.847 394.912 170.39 392.619 172.338 390.671C174.285 388.722 176.578 387.179 179.217 386.041C181.856 384.902 184.672 384.333 187.667 384.333C190.661 384.333 193.478 384.902 196.117 386.041C198.756 387.179 201.049 388.722 202.996 390.671C204.943 392.619 206.487 394.912 207.628 397.55C208.769 400.188 209.338 403.004 209.333 406C209.329 408.996 208.76 411.812 207.626 414.45C206.492 417.088 204.949 419.381 202.996 421.329C201.043 423.278 198.75 424.822 196.117 425.962C193.483 427.101 190.667 427.67 187.667 427.667ZM187.667 423.333C192.506 423.333 196.604 421.654 199.963 418.296C203.321 414.938 205 410.839 205 406C205 401.161 203.321 397.063 199.963 393.704C196.604 390.346 192.506 388.667 187.667 388.667C182.828 388.667 178.729 390.346 175.371 393.704C172.013 397.063 170.333 401.161 170.333 406C170.333 410.839 172.013 414.938 175.371 418.296C178.729 421.654 182.828 423.333 187.667 423.333Z" fill="white"/>
</g>
<defs>
<clipPath id="clip0_1160_9">
<rect width="375" height="812" fill="white"/>
</clipPath>
</defs>
</svg>
