<svg width="27" height="28" viewBox="0 0 27 28" fill="none" xmlns="http://www.w3.org/2000/svg">
<g clip-path="url(#clip0_1186_17)">
<path d="M13.5002 26.6828C20.5064 26.6828 26.186 21.0041 26.186 13.9991C26.186 6.9941 20.5064 1.31543 13.5002 1.31543C6.49407 1.31543 0.814453 6.9941 0.814453 13.9991C0.814453 21.0041 6.49407 26.6828 13.5002 26.6828Z" fill="white"/>
<path d="M18.7046 13.8433C18.2131 13.7737 17.7765 14.1661 17.3926 14.4129C16.5636 14.9423 15.8317 15.5561 15.125 16.248C14.6884 16.6762 14.0977 17.2457 13.9417 17.8617C13.8699 18.1464 13.9585 18.4734 14.0155 18.7518C14.1146 19.237 14.2665 19.7095 14.4184 20.1799C14.5899 20.7086 14.7884 21.2282 15.0132 21.7366C15.125 21.9918 15.2474 22.245 15.3676 22.4981C15.4794 22.7343 15.5532 22.8736 15.8274 22.9094C16.1354 22.9495 16.4434 22.9031 16.7492 22.8904C17.2006 22.8736 17.652 22.8293 18.0971 22.7533C18.6856 22.6542 19.2784 22.5466 19.8416 22.3462C20.3626 22.1585 20.9595 21.8674 21.2612 21.3886C21.9088 20.3592 22.3011 19.1906 22.5163 17.9988C22.5795 17.655 22.6407 17.3048 22.6386 16.9525C22.6407 16.6425 22.6681 16.3239 22.4445 16.0856C22.0438 15.6553 21.5692 15.2988 21.0777 14.9761C20.3499 14.5036 19.5884 13.9699 18.7046 13.8433ZM4.39251 8.86942C3.93478 9.11199 3.57618 9.68996 3.30829 10.1139C2.77251 10.9577 2.34009 11.9322 2.13759 12.9131C1.9836 13.664 2.31899 14.396 2.57001 15.09C2.8147 15.7586 3.24079 16.2881 3.70696 16.8133C3.82509 16.9483 3.97485 17.0496 4.09298 17.1825C4.22798 17.3322 4.39884 17.4736 4.57603 17.5727C4.70259 17.6444 4.81649 17.5474 4.94517 17.5179C5.28478 17.4356 5.5379 17.2626 5.84587 17.1002C6.1222 16.9525 6.40696 16.8281 6.6854 16.6804C7.28235 16.3598 7.99321 16.0961 8.51423 15.6553C8.58173 15.5983 8.67032 15.5266 8.68931 15.4359C8.73782 15.2102 8.67032 14.917 8.65978 14.6871C8.64712 14.3643 8.6429 14.0437 8.64079 13.721C8.63868 12.9911 8.6661 12.2613 8.6661 11.5314C8.67243 11.1243 8.72306 10.7193 8.70407 10.3122C8.67032 9.70684 8.01642 9.49168 7.52493 9.36934C6.83517 9.19848 6.14118 8.96434 5.43665 8.87785C5.14556 8.84621 4.66462 8.72598 4.39251 8.86942ZM22.299 7.04903C22.3644 6.59129 22.0585 6.04074 21.837 5.63153C21.3983 4.8152 20.7697 4.01364 19.985 3.3766C19.3859 2.88934 18.5042 2.69106 17.6837 2.60879C16.2134 2.45903 15.0913 2.54973 14.7812 2.59824C14.469 2.64676 14.1758 2.74168 14.0092 2.9484C13.6801 3.34918 13.6231 3.92293 13.5535 4.41653C13.4523 5.12106 13.3637 5.84668 13.4565 6.55543C13.4713 6.68199 13.4902 6.84864 13.5514 6.96043C13.6674 7.16715 13.9121 7.27051 14.1547 7.37809C15.4119 7.93285 17.8102 9.30606 18.2005 9.49168C18.7827 9.77223 19.4028 9.39887 19.8331 9.09723C20.4301 8.67746 21.0945 8.28301 21.6219 7.8084C21.8392 7.61434 22.2589 7.31903 22.299 7.04903ZM4.24064 22.7407C4.29126 22.8187 4.33978 22.8778 4.41782 22.9368C4.54228 23.0318 4.6604 23.1288 4.77853 23.2322C5.81001 24.1371 7.01868 24.8184 8.21681 25.4723C8.57751 25.6706 8.92134 25.8731 9.28837 26.0566C9.68493 26.2528 10.0942 26.3857 10.5202 26.5038C10.8092 26.5839 11.1024 26.662 11.402 26.6915C11.6804 26.7189 11.9652 26.7843 12.2457 26.7886C12.406 26.7907 12.5537 26.7843 12.7098 26.7632C12.6338 26.6409 12.5663 26.4848 12.5009 26.354C12.3976 26.1494 12.2921 25.9427 12.1867 25.7402C12.0643 25.5061 11.9694 25.2614 11.8449 25.0293C11.7479 24.8522 11.6213 24.6686 11.4463 24.5653C11.2121 24.4261 10.9885 24.2889 10.7333 24.1856C9.80095 23.8059 8.96564 23.2701 8.09868 22.7681C7.65993 22.5129 7.22962 22.2407 6.81618 21.9433C6.5947 21.7851 6.37954 21.6206 6.1454 21.4793C6.09689 21.4476 6.04837 21.4097 5.99142 21.4012C5.94079 21.3928 5.86274 21.3949 5.81212 21.4012C5.76571 21.4075 5.71087 21.416 5.66657 21.4244C5.36282 21.4877 5.03376 21.5679 4.71946 21.6375C4.41993 21.705 4.08454 21.7282 3.79767 21.8379C3.68587 21.88 3.69853 21.9433 3.74282 22.0404C3.81032 22.1922 3.90946 22.3314 4.01282 22.458C4.08243 22.5487 4.16892 22.6331 4.24064 22.7407Z" fill="#2F2F2F"/>
<path d="M7.89063 10.6926C7.8192 10.6926 7.74921 10.6724 7.68875 10.6344C7.62829 10.5964 7.57982 10.542 7.54894 10.4776C7.51805 10.4132 7.50602 10.3414 7.51423 10.2704C7.52244 10.1995 7.55055 10.1323 7.59531 10.0766C7.69867 9.95005 10.1329 6.9674 14.4866 6.2924C14.5357 6.28492 14.5857 6.28717 14.6339 6.29902C14.682 6.31087 14.7274 6.3321 14.7673 6.36148C14.8073 6.39086 14.8411 6.42782 14.8667 6.47026C14.8924 6.51269 14.9095 6.55977 14.917 6.6088C14.9244 6.65783 14.9222 6.70786 14.9103 6.75602C14.8985 6.80418 14.8773 6.84953 14.8479 6.88949C14.8185 6.92945 14.7815 6.96323 14.7391 6.9889C14.6967 7.01457 14.6496 7.03164 14.6005 7.03911C10.5484 7.66982 8.20703 10.5238 8.18383 10.5512C8.10789 10.644 8.00031 10.6926 7.89063 10.6926ZM6.99203 23.9352C6.88235 23.9352 6.77266 23.8888 6.69883 23.796C6.59547 23.6694 4.19711 20.6572 4.45656 16.2613C4.46922 16.0525 4.64641 15.8922 4.85524 15.9048C5.06406 15.9175 5.22227 16.0968 5.20961 16.3056C4.96914 20.4126 7.26203 23.2918 7.28524 23.3193C7.41813 23.4817 7.3907 23.7201 7.23039 23.8508C7.16078 23.9057 7.07641 23.9352 6.99203 23.9352ZM9.84391 25.4202C9.64984 25.4202 9.48531 25.2726 9.46844 25.0743C9.45156 24.8654 9.60555 24.6819 9.81438 24.6651C9.85024 24.6629 13.5248 24.317 16.3134 21.309C16.382 21.2356 16.4769 21.1924 16.5773 21.1888C16.6778 21.1853 16.7755 21.2217 16.8491 21.2901C17.0031 21.4314 17.0116 21.6718 16.8681 21.8258C13.8728 25.0532 10.038 25.4054 9.87766 25.4202C9.865 25.4181 9.85445 25.4202 9.84391 25.4202ZM4.58945 10.239C4.41227 10.239 4.25406 10.1146 4.22031 9.93318C4.19922 9.82771 3.7225 7.3281 4.74977 4.36654C4.81938 4.16825 5.03242 4.06279 5.2307 4.1324C5.42688 4.202 5.53234 4.41505 5.46484 4.61333C4.50297 7.38505 4.95649 9.76232 4.96281 9.78763C5.00289 9.99224 4.87 10.1926 4.66328 10.2327C4.64008 10.2369 4.61477 10.239 4.58945 10.239ZM15.5814 4.03536C15.5034 4.03536 15.4232 4.01005 15.3578 3.95943C15.3388 3.94677 13.3708 2.51872 10.4662 2.20021C10.2595 2.17911 10.1076 1.99138 10.1308 1.78466C10.1519 1.57583 10.3396 1.42818 10.5463 1.44927C13.664 1.78888 15.7185 3.28654 15.805 3.34982C15.9716 3.47427 16.0075 3.71052 15.883 3.87927C15.8113 3.98263 15.6974 4.03536 15.5814 4.03536ZM25.1284 10.1884C25.0187 10.1884 24.9091 10.1399 24.8331 10.0471C22.9895 7.76685 20.7325 6.89146 20.7114 6.88302C20.6176 6.84751 20.5417 6.77634 20.5002 6.68505C20.4587 6.59376 20.455 6.48976 20.4899 6.39575C20.5638 6.19958 20.7831 6.10255 20.9772 6.17427C21.0784 6.21224 23.4494 7.13193 25.4195 9.57036C25.5524 9.73279 25.525 9.97115 25.3626 10.1019C25.2951 10.161 25.2107 10.1884 25.1284 10.1884ZM18.4523 15.3015C18.4375 15.3015 18.4185 15.2994 18.4038 15.2973C18.3545 15.291 18.307 15.275 18.264 15.2502C18.221 15.2254 18.1833 15.1924 18.1531 15.153C18.1229 15.1135 18.1008 15.0685 18.088 15.0206C18.0753 14.9726 18.0722 14.9225 18.0789 14.8733C18.562 11.2579 18.0873 8.58739 18.081 8.55997C18.043 8.35536 18.178 8.15708 18.3848 8.12122C18.5915 8.08115 18.7877 8.22036 18.8256 8.42497C18.8446 8.53888 19.3277 11.241 18.8277 14.9746C18.8024 15.1644 18.64 15.3015 18.4523 15.3015ZM15.1701 18.3897C15.1574 18.3897 15.149 18.3897 15.1363 18.3876C10.4366 17.972 7.3443 15.3205 7.21352 15.2087C7.13803 15.1428 7.09168 15.0497 7.08457 14.9497C7.07746 14.8497 7.11016 14.751 7.17555 14.6751C7.31266 14.5168 7.55102 14.5 7.70922 14.6371C7.74086 14.6624 10.7573 17.2422 15.2038 17.6345C15.3005 17.6437 15.39 17.6896 15.4537 17.7629C15.5174 17.8362 15.5506 17.9311 15.5462 18.0281C15.5419 18.1252 15.5004 18.2168 15.4304 18.2841C15.3604 18.3514 15.2672 18.3892 15.1701 18.3897ZM1.67219 14.0549C1.35367 14.0549 1.00563 14.0148 0.680782 13.8904C0.587001 13.8549 0.511076 13.7837 0.46958 13.6924C0.428084 13.6011 0.424388 13.4971 0.459298 13.4031C0.535235 13.209 0.750392 13.1099 0.948673 13.1816C1.64477 13.4474 2.575 13.1753 2.58555 13.1732C2.78383 13.1141 2.99477 13.2259 3.05383 13.4284C3.115 13.6267 3.00109 13.8376 2.80281 13.8988C2.77117 13.9072 2.27336 14.0549 1.67219 14.0549ZM22.2892 17.2822C22.1458 17.2822 22.0108 17.2 21.9475 17.0629C21.8589 16.8751 21.9433 16.6494 22.131 16.5608C22.1521 16.5503 24.3501 15.5104 26.0228 13.1141C26.1409 12.9411 26.3772 12.899 26.548 13.0192C26.7189 13.1394 26.7611 13.3736 26.643 13.5444C24.85 16.1158 22.5466 17.2 22.4495 17.2464C22.3947 17.2696 22.342 17.2822 22.2892 17.2822ZM22.2892 23.6673C22.2048 23.6673 22.1205 23.6399 22.0488 23.5851C21.1839 22.9037 20.3465 21.6655 20.3106 21.6149C20.1925 21.4377 20.2389 21.1972 20.4161 21.077C20.5912 20.9589 20.8338 21.0053 20.9519 21.1846C20.9603 21.1951 21.7577 22.3722 22.5276 22.9776C22.6942 23.1104 22.7238 23.353 22.593 23.5218C22.5149 23.6146 22.4031 23.6673 22.2892 23.6673Z" fill="#2F2F2F"/>
<path d="M13.4995 27.4405C6.08719 27.4405 0.0585938 21.4119 0.0585938 13.9995C0.0585938 6.5893 6.08719 0.558594 13.4995 0.558594C20.9119 0.558594 26.9405 6.5893 26.9405 13.9974C26.9405 21.4119 20.9098 27.4405 13.4995 27.4405ZM13.4995 2.07102C6.9225 2.07102 1.57102 7.4225 1.57102 13.9995C1.57102 20.5766 6.92039 25.928 13.4974 25.928C20.0745 25.928 25.4259 20.5766 25.4259 13.9995C25.428 7.4225 20.0745 2.07102 13.4995 2.07102Z" fill="#2F2F2F"/>
</g>
<defs>
<clipPath id="clip0_1186_17">
<rect width="27" height="27" fill="white" transform="translate(0 0.5)"/>
</clipPath>
</defs>
</svg>
