<svg width="375" height="812" viewBox="0 0 375 812" fill="none" xmlns="http://www.w3.org/2000/svg">
<g clip-path="url(#clip0_93_34)">
<rect width="375" height="812" fill="#1F1F27"/>
<rect x="-429.368" y="191.469" width="810.375" height="940.952" rx="48" transform="rotate(-29.7783 -429.368 191.469)" fill="#1F1F27"/>
<rect x="141" y="359" width="93.801" height="93.801" rx="13.2114" fill="#50478A"/>
<path d="M205.69 402.635L205.69 402.635L205.698 402.643C206.253 403.225 206.674 404.271 206.674 406.087V421.171C206.674 422.395 207.666 423.387 208.89 423.387H211.117C212.341 423.387 213.333 422.395 213.333 421.171V405.953C213.333 402.671 212.551 399.946 210.68 398.114C208.829 396.3 206.164 395.527 202.973 395.527C201.079 395.527 199.322 395.902 197.73 396.68C197.097 396.986 196.513 397.348 195.983 397.763C195.78 396.725 194.87 395.973 193.809 395.973H192.152C190.928 395.973 189.936 396.965 189.936 398.189V421.171C189.936 422.395 190.928 423.387 192.152 423.387H194.379C195.603 423.387 196.595 422.395 196.595 421.171V409.078C196.595 406.026 197.173 404.189 198.004 403.208C198.813 402.27 200.203 401.65 202.527 401.65C204.223 401.65 205.167 402.077 205.69 402.635ZM164.635 423.387H166.952C168.175 423.387 169.167 422.395 169.167 421.171V409.786L170.888 408.257L181.597 422.503C182.016 423.06 182.672 423.387 183.368 423.387H186.001C187.818 423.387 188.863 421.319 187.784 419.856L175.764 403.56L186.907 391.526C188.221 390.108 187.215 387.805 185.282 387.805H182.812C182.19 387.805 181.596 388.067 181.177 388.526L169.167 401.658V390.021C169.167 388.797 168.175 387.805 166.952 387.805H164.635C163.411 387.805 162.419 388.797 162.419 390.021V421.171C162.419 422.395 163.411 423.387 164.635 423.387Z" stroke="white" stroke-width="2.95436"/>
</g>
<defs>
<clipPath id="clip0_93_34">
<rect width="375" height="812" fill="white"/>
</clipPath>
</defs>
</svg>
